<svg width="50" height="42" viewBox="0 0 50 42" fill="none" xmlns="http://www.w3.org/2000/svg">
<path d="M50 42V32.3363H47.0297C44.637 32.3363 42.7393 31.9646 41.3366 31.2212C39.934 30.4779 38.9026 29.1976 38.2426 27.3805C37.5825 25.646 37.2525 23.292 37.2525 20.3186V11.1504L33.6634 18.0885C34.2409 18.5015 35.066 18.8319 36.1386 19.0796C37.2112 19.41 38.3251 19.5752 39.4802 19.5752C42.203 19.5752 44.4719 18.708 46.2871 16.9735C48.1023 15.3215 49.0099 13.0089 49.0099 10.0354C49.0099 7.22714 48.1436 4.83186 46.4109 2.84956C44.6782 0.949857 42.203 5.00679e-06 38.9851 5.00679e-06C36.9224 5.00679e-06 34.9835 0.454286 33.1683 1.36284C31.4356 2.35399 30.033 4.00591 28.9604 6.31859C27.8878 8.71387 27.3515 11.9764 27.3515 16.1062V18.2124C27.3515 24.0767 28.1353 28.7434 29.703 32.2124C31.3531 35.6814 33.7046 38.1593 36.7574 39.646C39.8102 41.2153 43.5231 42 47.896 42H50ZM22.6485 42V32.3363H19.6782C17.2855 32.3363 15.3878 31.9646 13.9851 31.2212C12.5825 30.4779 11.5512 29.1976 10.8911 27.3805C10.231 25.646 9.90099 23.292 9.90099 20.3186L9.90099 11.1504L6.31188 18.0885C6.88944 18.5015 7.71452 18.8319 8.78713 19.0796C9.85974 19.41 10.9736 19.5752 12.1287 19.5752C14.8515 19.5752 17.1205 18.708 18.9356 16.9735C20.7508 15.3215 21.6584 13.0089 21.6584 10.0354C21.6584 7.22714 20.7921 4.83186 19.0594 2.84956C17.3267 0.949857 14.8515 5.00679e-06 11.6337 5.00679e-06C9.57096 5.00679e-06 7.63201 0.454286 5.81683 1.36284C4.08416 2.35399 2.68152 4.00591 1.60891 6.31859C0.536304 8.71387 0 11.9764 0 16.1062L0 18.2124C0 24.0767 0.783828 28.7434 2.35148 32.2124C4.00165 35.6814 6.35313 38.1593 9.40594 39.646C12.4587 41.2153 16.1716 42 20.5446 42H22.6485Z" fill="#0C0FA0"/>
</svg>
