<svg width="50" height="42" viewBox="0 0 50 42" fill="none" xmlns="http://www.w3.org/2000/svg">
<path d="M0 42V32.3363H2.9703C5.36304 32.3363 7.26073 31.9646 8.66337 31.2212C10.066 30.4779 11.0974 29.1976 11.7574 27.3805C12.4175 25.646 12.7475 23.292 12.7475 20.3186V11.1504L16.3366 18.0885C15.7591 18.5015 14.934 18.8319 13.8614 19.0796C12.7888 19.41 11.6749 19.5752 10.5198 19.5752C7.79703 19.5752 5.52805 18.708 3.71287 16.9735C1.89769 15.3215 0.990101 13.0089 0.990101 10.0354C0.990101 7.22714 1.85644 4.83186 3.58911 2.84956C5.32178 0.949852 7.79703 0 11.0149 0C13.0776 0 15.0165 0.454281 16.8317 1.36283C18.5644 2.35398 19.967 4.0059 21.0396 6.31858C22.1122 8.71387 22.6485 11.9764 22.6485 16.1062V18.2124C22.6485 24.0767 21.8647 28.7434 20.297 32.2124C18.6469 35.6814 16.2954 38.1593 13.2426 39.646C10.1898 41.2153 6.4769 42 2.10397 42H0ZM27.3515 42V32.3363H30.3218C32.7145 32.3363 34.6122 31.9646 36.0149 31.2212C37.4175 30.4779 38.4488 29.1976 39.1089 27.3805C39.769 25.646 40.099 23.292 40.099 20.3186V11.1504L43.6881 18.0885C43.1106 18.5015 42.2855 18.8319 41.2129 19.0796C40.1403 19.41 39.0264 19.5752 37.8713 19.5752C35.1485 19.5752 32.8795 18.708 31.0644 16.9735C29.2492 15.3215 28.3416 13.0089 28.3416 10.0354C28.3416 7.22714 29.2079 4.83186 30.9406 2.84956C32.6733 0.949852 35.1485 0 38.3663 0C40.429 0 42.368 0.454281 44.1832 1.36283C45.9158 2.35398 47.3185 4.0059 48.3911 6.31858C49.4637 8.71387 50 11.9764 50 16.1062V18.2124C50 24.0767 49.2162 28.7434 47.6485 32.2124C45.9984 35.6814 43.6469 38.1593 40.5941 39.646C37.5413 41.2153 33.8284 42 29.4554 42H27.3515Z" fill="#0C0FA0"/>
</svg>
