<svg width="48" height="48" viewBox="0 0 48 48" fill="none" xmlns="http://www.w3.org/2000/svg">
<g clip-path="url(#clip0_3680_3536)">
<path d="M24 22V16L32 24L24 32V26H16V22H24ZM24 4C35.04 4 44 12.96 44 24C44 35.04 35.04 44 24 44C12.96 44 4 35.04 4 24C4 12.96 12.96 4 24 4ZM24 40C32.84 40 40 32.84 40 24C40 15.16 32.84 8 24 8C15.16 8 8 15.16 8 24C8 32.84 15.16 40 24 40Z" fill="#FCAF17"/>
</g>
<defs>
<clipPath id="clip0_3680_3536">
<rect width="48" height="48" fill="white"/>
</clipPath>
</defs>
</svg>
