<svg width="16" height="16" viewBox="0 0 16 16" fill="none" xmlns="http://www.w3.org/2000/svg">
<g id="chevron-circle-down">
<path id="Vector" d="M7.99967 14.6667C4.31767 14.6667 1.33301 11.682 1.33301 8.00004C1.33301 4.31804 4.31767 1.33337 7.99967 1.33337C11.6817 1.33337 14.6663 4.31804 14.6663 8.00004C14.6663 11.682 11.6817 14.6667 7.99967 14.6667ZM7.99967 13.3334C9.41416 13.3334 10.7707 12.7715 11.7709 11.7713C12.7711 10.7711 13.333 9.41453 13.333 8.00004C13.333 6.58555 12.7711 5.229 11.7709 4.2288C10.7707 3.22861 9.41416 2.66671 7.99967 2.66671C6.58519 2.66671 5.22863 3.22861 4.22844 4.2288C3.22824 5.229 2.66634 6.58555 2.66634 8.00004C2.66634 9.41453 3.22824 10.7711 4.22844 11.7713C5.22863 12.7715 6.58519 13.3334 7.99967 13.3334ZM7.99967 9.21871L10.357 6.86204C10.4827 6.7406 10.6511 6.67341 10.8259 6.67492C11.0007 6.67644 11.1679 6.74656 11.2916 6.87016C11.4152 6.99377 11.4853 7.16098 11.4868 7.33577C11.4883 7.51057 11.4211 7.67897 11.2997 7.80471L8.47101 10.6334C8.34599 10.7584 8.17645 10.8286 7.99967 10.8286C7.8229 10.8286 7.65336 10.7584 7.52834 10.6334L4.69967 7.80471C4.57824 7.67897 4.51104 7.51057 4.51256 7.33577C4.51408 7.16098 4.58419 6.99377 4.7078 6.87016C4.8314 6.74656 4.99861 6.67644 5.17341 6.67492C5.3482 6.67341 5.51661 6.7406 5.64234 6.86204L7.99967 9.21871Z" fill="#4E4B66"/>
</g>
</svg>
