<svg width="16" height="16" viewBox="0 0 16 16" fill="none" xmlns="http://www.w3.org/2000/svg">
<g id="moedas 1">
<path id="Vector" fill-rule="evenodd" clip-rule="evenodd" d="M10.5709 9.3091C10.5709 8.40365 9.68727 7.67274 8.48364 7.51274V5.94183C8.79389 5.98763 9.08702 6.1129 9.33455 6.30547L9.51636 6.46547C9.5434 6.48972 9.57501 6.50832 9.60934 6.52019C9.64367 6.53206 9.68002 6.53695 9.71626 6.53458C9.75251 6.53221 9.78791 6.52262 9.8204 6.50638C9.85289 6.49014 9.88181 6.46758 9.90545 6.44001L10.2218 6.07638C10.2483 6.04775 10.2684 6.01384 10.2809 5.97689C10.2933 5.93993 10.2978 5.90076 10.294 5.86195C10.2902 5.82314 10.2783 5.78557 10.2589 5.7517C10.2396 5.71784 10.2133 5.68845 10.1818 5.66547L9.99273 5.52365C9.55612 5.17144 9.027 4.95297 8.46909 4.89456V4.58547C8.46909 4.55156 8.46241 4.51799 8.44944 4.48666C8.43646 4.45534 8.41745 4.42688 8.39347 4.4029C8.3695 4.37893 8.34103 4.35991 8.30971 4.34694C8.27839 4.33396 8.24481 4.32728 8.21091 4.32728H7.77818C7.74397 4.3268 7.71001 4.33312 7.67826 4.34588C7.64652 4.35864 7.61762 4.37758 7.59326 4.40161C7.5689 4.42563 7.54956 4.45425 7.53636 4.48582C7.52316 4.51738 7.51636 4.55125 7.51636 4.58547V4.89456C6.31273 5.05456 5.42909 5.78183 5.42909 6.69092C5.42909 7.60001 6.31273 8.32728 7.51636 8.48728V10.0618C7.20611 10.016 6.91298 9.89076 6.66545 9.69819L6.48364 9.53819C6.4566 9.51394 6.42499 9.49534 6.39066 9.48347C6.35633 9.4716 6.31998 9.46671 6.28374 9.46908C6.24749 9.47145 6.21209 9.48104 6.1796 9.49728C6.14711 9.51352 6.11819 9.53608 6.09454 9.56365L5.77818 9.92728C5.75232 9.95585 5.73271 9.98952 5.72063 10.0261C5.70855 10.0627 5.70425 10.1014 5.70802 10.1398C5.71178 10.1781 5.72353 10.2153 5.7425 10.2488C5.76148 10.2824 5.78725 10.3116 5.81818 10.3346L6 10.4909C6.4366 10.8431 6.96573 11.0616 7.52364 11.12V11.4255C7.52364 11.4949 7.55122 11.5615 7.60032 11.6106C7.64942 11.6597 7.71602 11.6873 7.78545 11.6873H8.22909C8.29853 11.6873 8.36512 11.6597 8.41422 11.6106C8.46332 11.5615 8.49091 11.4949 8.49091 11.4255V11.12C9.68364 10.9491 10.5709 10.2182 10.5709 9.3091ZM14.3345 8.00001C14.3345 9.25287 13.963 10.4776 13.267 11.5193C12.5709 12.561 11.5816 13.3729 10.4241 13.8524C9.26664 14.3318 7.99297 14.4573 6.76419 14.2128C5.53541 13.9684 4.4067 13.3651 3.5208 12.4792C2.6349 11.5933 2.03159 10.4646 1.78717 9.23582C1.54275 8.00704 1.6682 6.73337 2.14764 5.57589C2.62709 4.4184 3.439 3.42908 4.48071 2.73303C5.52243 2.03698 6.74714 1.66547 8 1.66547C9.68003 1.66547 11.2912 2.33285 12.4792 3.52081C13.6672 4.70877 14.3345 6.31999 14.3345 8.00001ZM8.48364 8.5491V10.0691C9.10545 9.9891 9.53454 9.73819 9.53454 9.3091C9.53454 8.88001 9.09091 8.6291 8.48364 8.5491ZM7.51636 5.92365V7.45092C6.89455 7.37819 6.46545 7.14547 6.46545 6.68728C6.46545 6.2291 6.90909 6.00001 7.51636 5.92365Z" fill="#153F8D"/>
</g>
</svg>
