<svg width="16" height="12" viewBox="0 0 16 12" fill="none" xmlns="http://www.w3.org/2000/svg">
<g id="Group">
<g id="Group_2">
<path id="Vector" d="M12.5018 11.821H9.91582H9.21945H9.06906V8.35229H10.2035C10.4912 8.35229 10.6612 8.02536 10.4912 7.78997L8.28443 4.73643C8.14385 4.54027 7.85288 4.54027 7.7123 4.73643L5.50552 7.78997C5.33551 8.02536 5.50225 8.35229 5.79322 8.35229H6.92767V11.821H6.77728H6.08092H3.08296C1.36657 11.7262 0 10.121 0 8.38171C0 7.18188 0.650593 6.1357 1.61504 5.57011C1.52677 5.33145 1.481 5.07644 1.481 4.80836C1.481 3.58237 2.4716 2.59177 3.69759 2.59177C3.9624 2.59177 4.21741 2.63754 4.45607 2.72581C5.16551 1.22193 6.69555 0.179016 8.47405 0.179016C10.7756 0.182285 12.6718 1.94444 12.8876 4.19046C14.6563 4.4945 16 6.13243 16 7.98613C16 9.96733 14.4569 11.6837 12.5018 11.821Z" fill="#153F8D"/>
</g>
</g>
</svg>
