<svg width="16" height="16" viewBox="0 0 16 16" fill="none" xmlns="http://www.w3.org/2000/svg">
<g id="Group">
<g id="Group_2">
<g id="Group_3">
<path id="Vector" d="M9.16011 4.18339C9.16011 3.54243 8.6397 3.02103 8 3.02103C7.36031 3.02103 6.8399 3.54246 6.8399 4.18339C6.8399 4.27286 6.84978 4.36048 6.86947 4.44574H9.13057C9.15023 4.36048 9.16011 4.27282 9.16011 4.18339Z" fill="#153F8D"/>
<path id="Vector_2" d="M11.517 3.61597C11.357 3.57744 11.2301 3.45593 11.1847 3.29778C11.1162 3.05962 11.0191 2.82831 10.8962 2.61029C10.8144 2.46533 10.8179 2.28745 10.9052 2.14581L11.2976 1.50937L10.7251 0.945607L10.07 1.33723C9.93057 1.42062 9.75727 1.42366 9.61491 1.3453C9.39303 1.22311 9.15734 1.12643 8.91439 1.05791C8.75634 1.01333 8.63433 0.887453 8.59477 0.728068L8.41398 0H7.59607L7.41607 0.725026C7.37638 0.884855 7.25378 1.01101 7.09511 1.05525C6.85207 1.12297 6.61607 1.21897 6.39375 1.34058C6.25163 1.41832 6.07891 1.41501 5.93983 1.33186L5.28205 0.938633L4.70954 1.50239L5.10031 2.13617C5.1879 2.27822 5.19111 2.45672 5.10869 2.60185C4.9851 2.81945 4.88735 3.05046 4.81816 3.28848C4.77234 3.44598 4.64568 3.56691 4.48619 3.6053L3.74451 3.78386V4.44574H5.94246C5.93163 4.35935 5.92564 4.2719 5.92564 4.18338C5.92564 3.03832 6.85621 2.10674 8.00004 2.10674C9.14387 2.10674 10.0744 3.03832 10.0744 4.18338C10.0744 4.2719 10.0685 4.35932 10.0576 4.44574H12.2556V3.79374L11.517 3.61597Z" fill="#153F8D"/>
</g>
<path id="Vector_3" d="M0 13.895V15.6848C0 15.8586 0.141402 16 0.315214 16H15.6848C15.8586 16 16 15.8586 16 15.6848V13.895H11.0102L10.6625 14.7577C10.5928 14.9307 10.425 15.044 10.2385 15.044H5.75327C5.56677 15.044 5.39897 14.9307 5.32927 14.7577L4.98154 13.895H0Z" fill="#153F8D"/>
</g>
<path id="Vector_4" d="M14.474 5.36H1.52598C1.35795 5.36 1.22123 5.49672 1.22123 5.66475V12.9807H5.29022C5.47672 12.9807 5.64451 13.094 5.71422 13.267L6.06195 14.1297H9.92995L10.2777 13.267C10.3474 13.094 10.5152 12.9807 10.7017 12.9807H14.7788V5.66479C14.7788 5.49672 14.6421 5.36 14.474 5.36ZM6.39056 8.63839L4.72885 9.47132L6.39056 10.3042V11.181L3.61179 9.74974V9.19282L6.39056 7.76161V8.63839ZM7.71508 11.2285H6.87566L8.44427 7.15258H9.28926L7.71508 11.2285ZM12.3882 9.75504L9.60943 11.1802V10.3038L11.2828 9.47128L9.60943 8.6388V7.76239L12.3882 9.18759V9.75504Z" fill="#153F8D"/>
</g>
</svg>
