<svg width="16" height="16" viewBox="0 0 16 16" fill="none" xmlns="http://www.w3.org/2000/svg">
<g id="aperto-de-mao 1">
<path id="Vector" d="M5.59093 12.2114C5.58329 12.2875 5.58987 12.3669 5.6176 12.4457C5.68533 12.6356 5.84427 12.7902 6.03253 12.8485C6.20747 12.9038 6.38151 12.867 6.43431 12.8096L6.79929 12.418C6.90489 12.3051 6.93156 12.1246 6.86951 11.9495C6.7168 11.6569 6.51218 11.5513 6.25013 11.504L5.59093 12.2114Z" fill="#153F8D"/>
<path id="Vector_2" d="M5.10275 10.2532L4.46489 10.9372C4.33529 11.0782 4.29813 11.2949 4.37049 11.5026C4.44729 11.722 4.63058 11.9004 4.84995 11.9671C5.0576 12.0293 5.26595 11.981 5.39644 11.8421L5.98702 11.2087C6.11751 11.0681 6.15378 10.8524 6.08142 10.6448C6.00462 10.4244 5.82026 10.2466 5.60195 10.1803C5.42773 10.1246 5.22329 10.1225 5.10275 10.2532Z" fill="#153F8D"/>
<path id="Vector_3" d="M3.83822 9.12746L3.24925 9.75982C3.11947 9.89973 3.0832 10.1171 3.15485 10.3255C3.23165 10.5442 3.41493 10.7227 3.63431 10.7893C3.8416 10.8524 4.05209 10.8032 4.11769 10.7337L4.77156 10.032C4.90205 9.89102 4.93831 9.6743 4.86596 9.46702C4.7888 9.24693 4.60551 9.06915 4.38613 9.00319C4.18436 8.93742 3.96107 8.9959 3.83822 9.12746Z" fill="#153F8D"/>
<path id="Vector_4" d="M2.68604 7.88089L2.03324 8.58293C1.90276 8.72356 1.86649 8.9392 1.93884 9.14578C2.01493 9.36693 2.19929 9.54471 2.41867 9.61138C2.62596 9.67325 2.83609 9.62525 2.90098 9.55485L3.55556 8.85316V8.85245C3.68604 8.7136 3.72231 8.4976 3.64996 8.29031C3.57422 8.06916 3.38987 7.89138 3.17049 7.82542C3.00284 7.76765 2.8 7.75769 2.68604 7.88089Z" fill="#153F8D"/>
<path id="Vector_5" d="M11.1611 3.69405C10.7388 3.93013 10.152 3.97245 9.58044 4.01351C9.14809 4.04302 8.70204 4.07431 8.38151 4.19271L6.59929 4.85031C6.5872 4.85511 6.57493 4.85796 6.56213 4.85974C6.47609 4.87325 6.39644 4.8848 6.32498 4.89476C5.89102 4.95591 5.84089 4.97458 5.79093 5.10311C5.74542 5.22187 5.79538 5.39307 5.91875 5.53849C6.01938 5.65796 6.41315 6.03094 7.22329 5.83911L8.23822 5.70507C8.80658 5.63182 9.26222 6.00231 9.62613 6.30134L12.3556 8.4848L12.3577 8.48374C12.8972 8.25796 13.4594 7.96427 13.9372 7.38862L11.1611 3.69405Z" fill="#153F8D"/>
<path id="Vector_6" d="M7.40551 3.56142C7.24373 3.57635 7.05831 3.59679 6.86382 3.61706C5.78809 3.73191 5.19164 3.77706 4.88818 3.72088L2.09547 7.35591C2.19822 7.45315 2.28338 7.55413 2.352 7.66346C2.58542 7.42453 2.93813 7.33919 3.2816 7.44302C3.61867 7.54471 3.90009 7.81795 4.01778 8.15697C4.06773 8.30044 4.08338 8.44764 4.07058 8.58862C4.20836 8.56924 4.35396 8.57724 4.49724 8.62097C4.83342 8.72195 5.11591 8.99591 5.23271 9.33493C5.28338 9.47768 5.29938 9.62453 5.28729 9.76551C5.42507 9.74613 5.57067 9.75431 5.71396 9.79893C6.04942 9.90062 6.33067 10.1739 6.44836 10.5111C6.52231 10.725 6.52516 10.9451 6.46507 11.1424C6.49938 11.149 6.53458 11.1573 6.5696 11.1683C6.87058 11.2617 7.12622 11.509 7.23627 11.8139C7.34116 12.109 7.29564 12.419 7.12338 12.6416L7.61884 13.0379C7.74009 13.134 7.9168 13.1445 8.08178 13.0645C8.26062 12.9778 8.39573 12.8016 8.43556 12.6044C8.45227 12.5221 8.44676 12.4423 8.42791 12.3684L7.79947 11.8656C7.71502 11.7979 7.70009 11.6729 7.76604 11.5861C7.83271 11.5001 7.95502 11.4841 8.04 11.5518L8.79556 12.1573C8.87058 12.2174 9.08551 12.2334 9.28267 12.1406C9.48996 12.0416 9.64658 11.8375 9.68996 11.6098C9.73156 11.3945 9.66489 11.1858 9.51662 11.0663L8.83324 10.5195C8.74809 10.4517 8.73316 10.3264 8.79982 10.2407C8.86578 10.1536 8.9888 10.1376 9.07307 10.2064L10.0665 11.0009C10.2158 11.1196 10.4304 11.136 10.6286 11.0436C10.8341 10.9452 10.9908 10.7415 11.0352 10.5113C11.0768 10.296 11.0101 10.088 10.8603 9.96746L9.86649 9.17404C9.78133 9.10559 9.7664 8.98062 9.83307 8.89315C9.89973 8.80746 10.022 8.79253 10.1074 8.86008C10.1074 8.86008 11.6164 10.0667 11.6174 10.0667C11.6924 10.1257 11.9063 10.1424 12.1026 10.0485C12.3102 9.95164 12.4658 9.74791 12.5109 9.51839C12.5518 9.30275 12.4852 9.09333 12.336 8.97493L9.38258 6.61137C9.04373 6.33351 8.69369 6.04568 8.28711 6.10026L7.29262 6.23004C6.62222 6.39111 5.98987 6.23182 5.62418 5.79946C5.40373 5.53902 5.32871 5.21688 5.42773 4.95786C5.56658 4.59857 5.83253 4.56142 6.27147 4.49955C6.33707 4.49119 6.40764 4.48088 6.48533 4.46862L8.24924 3.81795C8.36391 3.77528 8.49084 3.74577 8.62222 3.71964C8.16871 3.54417 7.84 3.53368 7.40551 3.56142Z" fill="#153F8D"/>
<path id="Vector_7" d="M3.57226 2.87253C3.25102 2.84817 2.95769 3.09031 2.53546 3.64017L1.45564 5.04675C1.06506 5.55413 0.918754 5.86969 0.951109 6.13706C0.977065 6.3568 1.12995 6.57244 1.2816 6.69404L1.79378 7.10311L4.57511 3.48302L4.21511 3.19484C3.96764 2.99751 3.76498 2.88746 3.57226 2.87253Z" fill="#153F8D"/>
<path id="Vector_8" d="M12.491 2.86881C12.2983 2.88089 12.0939 2.98863 11.8444 3.18312L11.4805 3.46543L14.2233 7.11503L14.5778 6.8393C14.8844 6.60143 15.0409 6.38863 15.0695 6.16907C15.1049 5.90241 14.9632 5.58436 14.5788 5.07041L13.5166 3.65032C13.1028 3.09476 12.8132 2.84818 12.491 2.86881Z" fill="#153F8D"/>
</g>
</svg>
