<svg width="16" height="16" viewBox="0 0 16 16" fill="none" xmlns="http://www.w3.org/2000/svg">
<g id="maleta-de-negocios 1" clip-path="url(#clip0_6346_4516)">
<path id="Vector" d="M16 8.03127V13.9597C16 14.6767 15.4167 15.2601 14.6996 15.2601H1.3004C0.583297 15.26 0 14.6767 0 13.9597V8.03127L6.57732 9.61826V11.2714C6.57732 11.5141 6.77415 11.7109 7.01688 11.7109H8.98303C9.22576 11.7109 9.42259 11.5141 9.42259 11.2714V9.61826L16 8.03127ZM16 4.8681V7.12692L9.42268 8.71391V8.58942C9.42268 8.3467 9.22585 8.14986 8.98312 8.14986H7.01688C6.77415 8.14986 6.57732 8.3467 6.57732 8.58942V8.71391L0 7.12692V4.8681C0 4.15109 0.583297 3.56771 1.3004 3.56771H4.76879V2.60832C4.76879 1.57808 5.60695 0.739929 6.63719 0.739929H9.36299C10.3932 0.739929 11.2314 1.57808 11.2314 2.60832V3.5678H14.6998C15.4167 3.56771 16 4.15109 16 4.8681ZM5.64782 3.56771H10.3522V2.60832C10.3522 2.06283 9.9084 1.61905 9.3629 1.61905H6.6371C6.0916 1.61905 5.64782 2.06283 5.64782 2.60832V3.56771Z" fill="#153F8D"/>
</g>
<defs>
<clipPath id="clip0_6346_4516">
<rect width="16" height="16" fill="white"/>
</clipPath>
</defs>
</svg>
