<svg width="16" height="16" viewBox="0 0 16 16" fill="none" xmlns="http://www.w3.org/2000/svg">
<g id="group 1" clip-path="url(#clip0_6346_4427)">
<path id="Vector" d="M6.00586 0.28125H0.753906L3.37988 2.46936L6.00586 0.28125Z" fill="#153F8D"/>
<path id="Vector_2" d="M5.7948 5.11023H6.76062V0.909668L3.38025 3.72693L0 0.909668V5.11023H3.26636L5.7948 6.37439V5.11023Z" fill="#153F8D"/>
<path id="Vector_3" d="M9.23914 9.93921C9.23914 8.87415 8.37268 8.00757 7.30762 8.00757C6.24255 8.00757 5.37598 8.87415 5.37598 9.93921C5.37598 11.0043 6.24255 11.8707 7.30762 11.8707C8.38928 11.8707 9.23914 10.989 9.23914 9.93921Z" fill="#153F8D"/>
<path id="Vector_4" d="M15.0341 9.93921C15.0341 8.87415 14.1676 8.00757 13.1025 8.00757C12.0375 8.00757 11.1709 8.87415 11.1709 9.93921C11.1709 10.991 12.0228 11.8707 13.1025 11.8707C14.1676 11.8707 15.0341 11.0043 15.0341 9.93921Z" fill="#153F8D"/>
<path id="Vector_5" d="M13.1023 11.8707C11.5046 11.8707 10.2048 13.1705 10.2048 14.7682C10.2048 13.1545 8.88269 11.8707 7.3075 11.8707C5.70984 11.8707 4.41016 13.1705 4.41016 14.7682V15.734H15.9996V14.7682C15.9996 13.1545 14.6775 11.8707 13.1023 11.8707Z" fill="#153F8D"/>
<path id="Vector_6" d="M10.205 6.55896C11.27 6.55896 12.1366 5.69238 12.1366 4.62732C12.1366 3.56226 11.27 2.69568 10.205 2.69568C9.13989 2.69568 8.27344 3.56226 8.27344 4.62732C8.27344 5.67908 9.12524 6.55896 10.205 6.55896Z" fill="#153F8D"/>
<path id="Vector_7" d="M10.2054 9.93921C10.2054 8.7085 10.9768 7.65442 12.0614 7.23535C11.5551 6.81226 10.9054 6.55896 10.2054 6.55896C9.49878 6.55896 8.85083 6.81287 8.34766 7.23462C9.43311 7.6532 10.2054 8.70752 10.2054 9.93921Z" fill="#153F8D"/>
</g>
<defs>
<clipPath id="clip0_6346_4427">
<rect width="16" height="16" fill="white"/>
</clipPath>
</defs>
</svg>
