<svg width="16" height="16" viewBox="0 0 16 16" fill="none" xmlns="http://www.w3.org/2000/svg">
<g id="Group">
<path id="Vector" d="M0.46875 8.3504C0.727625 8.3504 0.9375 8.14053 0.9375 7.88165V5.84H2.97916C3.60044 5.81693 3.59997 4.92534 2.97916 4.9025H0.46875C0.209875 4.9025 0 5.11237 0 5.37125V7.88165C0 8.14053 0.209875 8.3504 0.46875 8.3504Z" fill="#153F8D"/>
<path id="Vector_2" d="M15.5312 4.90247H13.0208C12.3996 4.92553 12.4 5.81712 13.0208 5.83997H15.0625V7.88162C15.0856 8.5029 15.9772 8.50243 16 7.88162V5.37122C16 5.11234 15.7901 4.90247 15.5312 4.90247Z" fill="#153F8D"/>
<path id="Vector_3" d="M11.7323 6.2873V2.78955L8.46875 4.67374V8.44218L11.4979 6.69327C11.6429 6.60952 11.7323 6.45477 11.7323 6.2873Z" fill="#153F8D"/>
<path id="Vector_4" d="M8.23438 0.228737C8.08934 0.144987 7.91066 0.144987 7.76563 0.228737L4.73647 1.97764L8 3.86183L11.2636 1.97764L8.23438 0.228737Z" fill="#153F8D"/>
<path id="Vector_5" d="M4.26772 6.2873C4.26772 6.45477 4.35706 6.60952 4.50209 6.69324L7.53125 8.44214V4.67374L4.26772 2.78955V6.2873Z" fill="#153F8D"/>
<path id="Vector_6" d="M12.7364 15.834L15.7656 14.0851C15.9107 14.0014 16 13.8466 16 13.6792V10.1814L12.7364 12.0656V15.834Z" fill="#153F8D"/>
<path id="Vector_7" d="M12.5021 7.62061C12.357 7.53686 12.1783 7.53686 12.0333 7.62061L9.00416 9.36952L12.2677 11.2537L15.5313 9.36952L12.5021 7.62061Z" fill="#153F8D"/>
<path id="Vector_8" d="M8.53541 13.6792C8.53541 13.8466 8.62475 14.0014 8.76978 14.0851L11.7989 15.834V12.0656L8.53541 10.1814V13.6792Z" fill="#153F8D"/>
<path id="Vector_9" d="M4.20103 15.834L7.23022 14.0851C7.37525 14.0014 7.46459 13.8466 7.46459 13.6792V10.1814L4.20103 12.0656V15.834Z" fill="#153F8D"/>
<path id="Vector_10" d="M3.96666 7.62061C3.82162 7.53686 3.64294 7.53686 3.49791 7.62061L0.46875 9.36952L3.73228 11.2537L6.99584 9.36952L3.96666 7.62061Z" fill="#153F8D"/>
<path id="Vector_11" d="M0 13.6792C0 13.8466 0.0893438 14.0014 0.234375 14.0851L3.26353 15.834V12.0656L0 10.1814V13.6792Z" fill="#153F8D"/>
</g>
</svg>
