<svg width="16" height="16" viewBox="0 0 16 16" fill="none" xmlns="http://www.w3.org/2000/svg">
<g id="maleta-de-negocios 1" clip-path="url(#clip0_4865_5601)">
<path id="Vector" d="M16 8.0313V13.9597C16 14.6768 15.4167 15.2601 14.6996 15.2601H1.3004C0.583297 15.26 0 14.6768 0 13.9597V8.0313L6.57732 9.61829V11.2714C6.57732 11.5141 6.77415 11.7109 7.01688 11.7109H8.98303C9.22576 11.7109 9.42259 11.5141 9.42259 11.2714V9.61829L16 8.0313ZM16 4.86814V7.12695L9.42268 8.71394V8.58945C9.42268 8.34673 9.22585 8.14989 8.98312 8.14989H7.01688C6.77415 8.14989 6.57732 8.34673 6.57732 8.58945V8.71394L0 7.12695V4.86814C0 4.15112 0.583297 3.56774 1.3004 3.56774H4.76879V2.60836C4.76879 1.57811 5.60695 0.73996 6.63719 0.73996H9.36299C10.3932 0.73996 11.2314 1.57811 11.2314 2.60836V3.56783H14.6998C15.4167 3.56774 16 4.15112 16 4.86814ZM5.64782 3.56774H10.3522V2.60836C10.3522 2.06286 9.9084 1.61908 9.3629 1.61908H6.6371C6.0916 1.61908 5.64782 2.06286 5.64782 2.60836V3.56774Z" fill="#153F8D"/>
</g>
<defs>
<clipPath id="clip0_4865_5601">
<rect width="16" height="16" fill="white"/>
</clipPath>
</defs>
</svg>
