<svg width="16" height="16" viewBox="0 0 16 16" fill="none" xmlns="http://www.w3.org/2000/svg">
<g id="aperto-de-mao 1">
<path id="Vector" d="M5.59085 12.2114C5.5832 12.2875 5.58978 12.367 5.61752 12.4457C5.68525 12.6356 5.84418 12.7903 6.03245 12.8486C6.20738 12.9039 6.38143 12.8671 6.43423 12.8096L6.7992 12.418C6.9048 12.3051 6.93147 12.1247 6.86943 11.9495C6.71672 11.6569 6.51209 11.5513 6.25005 11.504L5.59085 12.2114Z" fill="#153F8D"/>
<path id="Vector_2" d="M5.10275 10.2531L4.46488 10.9372C4.33528 11.0782 4.29812 11.2949 4.37048 11.5026C4.44728 11.7219 4.63057 11.9004 4.84995 11.9671C5.05759 12.0293 5.26595 11.981 5.39644 11.8421L5.98701 11.2087C6.1175 11.0681 6.15377 10.8524 6.08141 10.6448C6.00461 10.4243 5.82026 10.2466 5.60195 10.1802C5.42772 10.1246 5.22328 10.1225 5.10275 10.2531Z" fill="#153F8D"/>
<path id="Vector_3" d="M3.83776 9.12749L3.24878 9.75985C3.11901 9.89976 3.08274 10.1172 3.15438 10.3255C3.23118 10.5442 3.41447 10.7227 3.63385 10.7894C3.84114 10.8525 4.05163 10.8032 4.11723 10.7337L4.7711 10.032C4.90158 9.89105 4.93785 9.67434 4.8655 9.46705C4.78834 9.24696 4.60505 9.06918 4.38567 9.00322C4.1839 8.93745 3.96061 8.99594 3.83776 9.12749Z" fill="#153F8D"/>
<path id="Vector_4" d="M2.68624 7.88087L2.03344 8.58292C1.90295 8.72354 1.86669 8.93919 1.93904 9.14576C2.01513 9.36692 2.19949 9.5447 2.41886 9.61136C2.62615 9.67323 2.83629 9.62523 2.90118 9.55483L3.55575 8.85314V8.85243C3.68624 8.71359 3.72251 8.49759 3.65015 8.2903C3.57442 8.06914 3.39006 7.89136 3.17069 7.82541C3.00304 7.76763 2.8002 7.75767 2.68624 7.88087Z" fill="#153F8D"/>
<path id="Vector_5" d="M11.1611 3.69403C10.7389 3.93012 10.1521 3.97243 9.58051 4.0135C9.14815 4.04301 8.70211 4.0743 8.38158 4.1927L6.59935 4.8503C6.58726 4.8551 6.575 4.85794 6.5622 4.85972C6.47615 4.87323 6.39651 4.88479 6.32504 4.89474C5.89109 4.9559 5.84095 4.97456 5.791 5.1031C5.74549 5.22185 5.79544 5.39305 5.91882 5.53848C6.01944 5.65794 6.41322 6.03092 7.22335 5.8391L8.23829 5.70505C8.80664 5.63181 9.26229 6.0023 9.6262 6.30132L12.3556 8.48479L12.3578 8.48372C12.8973 8.25794 13.4594 7.96425 13.9373 7.38861L11.1611 3.69403Z" fill="#153F8D"/>
<path id="Vector_6" d="M7.40575 3.5614C7.24397 3.57634 7.05855 3.59678 6.86406 3.61705C5.78833 3.73189 5.19188 3.77705 4.88841 3.72087L2.0957 7.35589C2.19846 7.45313 2.28361 7.55411 2.35224 7.66345C2.58566 7.42451 2.93837 7.33918 3.28184 7.443C3.6189 7.54469 3.90033 7.81793 4.01801 8.15696C4.06797 8.30042 4.08361 8.44762 4.07081 8.5886C4.20859 8.56922 4.35419 8.57722 4.49748 8.62096C4.83366 8.72193 5.11615 8.99589 5.23295 9.33491C5.28361 9.47767 5.29961 9.62451 5.28752 9.76549C5.4253 9.74611 5.5709 9.75429 5.71419 9.79891C6.04966 9.9006 6.3309 10.1738 6.44859 10.5111C6.52255 10.725 6.52539 10.945 6.4653 11.1424C6.49961 11.149 6.53481 11.1573 6.56984 11.1683C6.87081 11.2617 7.12646 11.509 7.2365 11.8138C7.34139 12.109 7.29588 12.419 7.12361 12.6416L7.61908 13.0378C7.74032 13.134 7.91704 13.1445 8.08201 13.0645C8.26086 12.9778 8.39597 12.8016 8.43579 12.6044C8.4525 12.5221 8.44699 12.4423 8.42815 12.3683L7.7997 11.8656C7.71526 11.7978 7.70033 11.6729 7.76628 11.5861C7.83295 11.5001 7.95526 11.4841 8.04024 11.5518L8.79579 12.1573C8.87081 12.2174 9.08575 12.2334 9.2829 12.1406C9.49019 12.0416 9.64681 11.8375 9.69019 11.6098C9.73179 11.3945 9.66512 11.1858 9.51686 11.0663L8.83348 10.5194C8.74833 10.4517 8.73339 10.3264 8.80006 10.2407C8.86601 10.1536 8.98904 10.1376 9.0733 10.2064L10.0667 11.0009C10.2161 11.1196 10.4306 11.136 10.6289 11.0435C10.8344 10.9452 10.991 10.7415 11.0354 10.5113C11.077 10.296 11.0104 10.088 10.8605 9.96745L9.86672 9.17402C9.78157 9.10558 9.76664 8.9806 9.8333 8.89313C9.89997 8.80745 10.0223 8.79251 10.1076 8.86007C10.1076 8.86007 11.6166 10.0666 11.6177 10.0666C11.6927 10.1257 11.9065 10.1424 12.1028 10.0485C12.3105 9.95162 12.466 9.74789 12.5112 9.51838C12.5521 9.30273 12.4854 9.09331 12.3362 8.97491L9.38281 6.61136C9.04397 6.33349 8.69393 6.04567 8.28735 6.10025L7.29286 6.23002C6.62246 6.39109 5.9901 6.2318 5.62441 5.79945C5.40397 5.539 5.32895 5.21687 5.42797 4.95785C5.56681 4.59856 5.83277 4.5614 6.2717 4.49953C6.3373 4.49118 6.40788 4.48087 6.48557 4.4686L8.24948 3.81793C8.36415 3.77527 8.49108 3.74576 8.62246 3.71962C8.16895 3.54416 7.84024 3.53367 7.40575 3.5614Z" fill="#153F8D"/>
<path id="Vector_7" d="M3.57179 2.87252C3.25055 2.84816 2.95721 3.09029 2.53499 3.64016L1.45517 5.04674C1.06459 5.55412 0.918281 5.86967 0.950636 6.13705C0.976592 6.35678 1.12948 6.57243 1.28113 6.69403L1.7933 7.10309L4.57464 3.483L4.21464 3.19483C3.96717 2.99749 3.7645 2.88745 3.57179 2.87252Z" fill="#153F8D"/>
<path id="Vector_8" d="M12.491 2.86881C12.2982 2.88089 12.0938 2.98863 11.8444 3.18312L11.4805 3.46543L14.2232 7.11503L14.5777 6.8393C14.8844 6.60143 15.0408 6.38863 15.0694 6.16907C15.1048 5.90241 14.9631 5.58436 14.5788 5.07041L13.5166 3.65032C13.1027 3.09476 12.8131 2.84818 12.491 2.86881Z" fill="#153F8D"/>
</g>
</svg>
