<svg width="11" height="16" viewBox="0 0 11 16" fill="none" xmlns="http://www.w3.org/2000/svg">
<g id="Page-1">
<g id="004---Creative-Problem-Solving">
<path id="Path" d="M1.2853 4.5714C1.27877 4.12446 1.5334 3.71473 1.93704 3.5227C2.34067 3.33066 2.81922 3.39157 3.16188 3.67859C3.50455 3.96561 3.64843 4.42606 3.53015 4.85711H4.99958V3.38769C4.53458 3.51548 4.0394 3.33764 3.76196 2.9432C3.48451 2.54876 3.48451 2.02261 3.76196 1.62817C4.0394 1.23374 4.53458 1.05589 4.99958 1.18369V0.0354004C4.00583 0.148458 3.07233 0.56955 2.32987 1.23969C1.30247 2.16168 0.71503 3.47667 0.713867 4.85711H1.32615C1.30049 4.76399 1.28676 4.66798 1.2853 4.5714Z" fill="#153F8D"/>
<path id="Path_2" d="M4.14258 2.28571C4.14258 2.60131 4.39842 2.85714 4.71401 2.85714C4.8543 2.85724 4.98963 2.80521 5.09372 2.71114C5.10467 2.70337 5.11624 2.69649 5.12829 2.69057C5.14533 2.67751 5.16384 2.66648 5.18344 2.65771C5.20313 2.65149 5.22344 2.64737 5.24401 2.64543C5.25759 2.64163 5.27144 2.63886 5.28544 2.63714H5.29258C5.31383 2.63907 5.33481 2.64328 5.35515 2.64971C5.37076 2.65231 5.38614 2.65613 5.40115 2.66114C5.41427 2.66852 5.42678 2.67693 5.43858 2.68629C5.45778 2.6973 5.47562 2.71053 5.49172 2.72571C5.49344 2.72743 5.49572 2.728 5.49715 2.72971C5.50491 2.74083 5.51188 2.75248 5.51801 2.76457C5.53093 2.78155 5.54186 2.79995 5.55058 2.81943C5.55697 2.83918 5.56109 2.8596 5.56286 2.88029C5.56671 2.89424 5.56948 2.90848 5.57115 2.92286V4.85714H7.50544C7.51908 4.85875 7.53255 4.86152 7.54572 4.86543C7.56671 4.86706 7.58742 4.87119 7.60743 4.87771C7.62678 4.88651 7.64508 4.89743 7.66201 4.91029C7.67414 4.91635 7.68579 4.92332 7.69686 4.93114C7.69886 4.93114 7.69944 4.93486 7.70115 4.93657C7.71653 4.95307 7.72995 4.97128 7.74115 4.99086C7.75012 5.00234 7.75824 5.01447 7.76544 5.02714C7.77067 5.0425 7.77459 5.05827 7.77715 5.07429C7.78358 5.09434 7.78779 5.11503 7.78972 5.136C7.78972 5.13829 7.79115 5.14029 7.79115 5.14286C7.78945 5.15679 7.78658 5.17055 7.78258 5.184C7.78096 5.20471 7.77683 5.22514 7.77029 5.24486C7.76168 5.26439 7.75075 5.28281 7.73772 5.29971C7.7317 5.3118 7.72482 5.32345 7.71715 5.33457C7.62306 5.43864 7.57102 5.57398 7.57115 5.71429C7.57115 6.02988 7.82699 6.28571 8.14258 6.28571C8.45817 6.28571 8.71401 6.02988 8.71401 5.71429C8.71414 5.57398 8.6621 5.43864 8.56801 5.33457C8.56023 5.32352 8.55335 5.31186 8.54743 5.29971C8.53447 5.28277 8.52353 5.26436 8.51486 5.24486C8.50833 5.22514 8.5042 5.20471 8.50258 5.184C8.49857 5.17055 8.49571 5.15679 8.49401 5.14286C8.49401 5.14029 8.49544 5.13829 8.49544 5.136C8.49733 5.11493 8.50155 5.09414 8.50801 5.074C8.51056 5.05807 8.51448 5.0424 8.51972 5.02714C8.52691 5.01431 8.53513 5.00208 8.54429 4.99057C8.5553 4.97103 8.56863 4.9529 8.58401 4.93657C8.58572 4.93486 8.58629 4.93257 8.58829 4.93114C8.62961 4.89249 8.68299 4.86928 8.73944 4.86543C8.7526 4.86152 8.76608 4.85875 8.77972 4.85714H10.4283C10.4282 4.66525 10.4173 4.47351 10.3954 4.28286C10.1256 2.04682 8.35717 0.287812 6.11972 0.03C5.93753 0.0102522 5.75441 0.000237951 5.57115 0V1.64857C5.56941 1.66247 5.56664 1.67622 5.56286 1.68971C5.56109 1.7104 5.55697 1.73082 5.55058 1.75057C5.54186 1.77005 5.53093 1.78845 5.51801 1.80543C5.51188 1.81752 5.50491 1.82917 5.49715 1.84029C5.49715 1.842 5.49344 1.84257 5.49172 1.84429C5.47544 1.85959 5.45741 1.87292 5.43801 1.884C5.42633 1.89316 5.41402 1.90147 5.40115 1.90886C5.38595 1.91387 5.37038 1.91769 5.35458 1.92029C5.33446 1.92685 5.31366 1.93107 5.29258 1.93286C5.29001 1.93286 5.28801 1.93286 5.28544 1.93286C5.27154 1.93112 5.25778 1.92835 5.24429 1.92457C5.22363 1.92266 5.20322 1.91854 5.18344 1.91229C5.16399 1.90351 5.14559 1.89259 5.12858 1.87971C5.11648 1.87359 5.10484 1.86662 5.09372 1.85886C4.98942 1.76531 4.85411 1.71379 4.71401 1.71429C4.39842 1.71429 4.14258 1.97012 4.14258 2.28571Z" fill="#153F8D"/>
<path id="Path_3" d="M8.14244 12.2857H2.99958C2.84179 12.2857 2.71387 12.4136 2.71387 12.5714C2.71387 12.7292 2.84179 12.8571 2.99958 12.8571H8.14244C8.30023 12.8571 8.42815 12.7292 8.42815 12.5714C8.42815 12.4136 8.30023 12.2857 8.14244 12.2857Z" fill="#153F8D"/>
<path id="Path_4" d="M5.57143 16C6.40762 15.9989 7.12148 15.3957 7.262 14.5714H3.88086C4.02138 15.3957 4.73524 15.9989 5.57143 16Z" fill="#153F8D"/>
<path id="Path_5" d="M5.57129 5.42859V7.24945C5.99964 7.13784 6.45389 7.28409 6.73666 7.62465C7.01943 7.96521 7.07968 8.43861 6.89123 8.83914C6.70278 9.23968 6.29965 9.49505 5.857 9.4943C5.76041 9.49298 5.66438 9.47925 5.57129 9.45345V11.7143H7.57129V11.4926C7.57069 10.3196 8.05209 9.19794 8.90272 8.3903C9.73545 7.61106 10.2645 6.56149 10.3956 5.42859H9.24472C9.37251 5.89359 9.19467 6.38877 8.80023 6.66621C8.40579 6.94366 7.87965 6.94366 7.48521 6.66621C7.09077 6.38877 6.91293 5.89359 7.04072 5.42859H5.57129Z" fill="#153F8D"/>
<path id="Path_6" d="M8.14244 14C8.30023 14 8.42815 13.8721 8.42815 13.7143C8.42815 13.5565 8.30023 13.4286 8.14244 13.4286H2.99958C2.84179 13.4286 2.71387 13.5565 2.71387 13.7143C2.71387 13.8721 2.84179 14 2.99958 14H8.14244Z" fill="#153F8D"/>
<path id="Path_7" d="M2.06314 5.21143C2.06058 5.22745 2.05666 5.24322 2.05143 5.25857C2.04423 5.27125 2.03612 5.28337 2.02714 5.29486C2.01594 5.31443 2.00252 5.33265 1.98714 5.34914C1.98543 5.35086 1.98486 5.35314 1.98286 5.35457C1.97188 5.3624 1.96032 5.36937 1.94829 5.37543C1.93127 5.3883 1.91287 5.39922 1.89343 5.408C1.87363 5.41423 1.85323 5.41834 1.83257 5.42029C1.81908 5.42406 1.80533 5.42683 1.79143 5.42857H0.75C0.879167 6.56187 1.40769 7.61212 2.24086 8.39114C3.09129 9.19849 3.57242 10.3199 3.57143 11.4926V11.7143H5V8.98857C5.00165 8.97524 5.00432 8.96206 5.008 8.94914C5.00973 8.92777 5.01395 8.90668 5.02057 8.88629C5.02907 8.86741 5.03971 8.84958 5.05229 8.83314C5.05841 8.82033 5.06568 8.80809 5.074 8.79657C5.07571 8.79486 5.078 8.79429 5.07971 8.79229C5.09516 8.77809 5.11212 8.76563 5.13029 8.75514C5.1428 8.7448 5.15629 8.73571 5.17057 8.728C5.18439 8.72344 5.19852 8.71991 5.21286 8.71743C5.23434 8.7104 5.2566 8.70599 5.27914 8.70429C5.2813 8.70367 5.2835 8.7032 5.28571 8.70286C5.29923 8.7045 5.3126 8.70718 5.32571 8.71086C5.34687 8.71276 5.36776 8.71697 5.388 8.72343C5.40687 8.7321 5.42478 8.74273 5.44143 8.75514C5.45406 8.76145 5.46619 8.7687 5.47771 8.77686C5.5816 8.87107 5.7169 8.92313 5.85714 8.92286C6.17273 8.92286 6.42857 8.66702 6.42857 8.35143C6.42857 8.03584 6.17273 7.78 5.85714 7.78C5.71685 7.7799 5.58152 7.83193 5.47743 7.926C5.46631 7.93376 5.45467 7.94073 5.44257 7.94686C5.42572 7.95982 5.40741 7.97076 5.388 7.97943C5.3539 7.98627 5.31981 7.99313 5.28571 8C5.28314 8 5.28114 8 5.27886 8C5.2579 7.99817 5.2372 7.99405 5.21714 7.98771C5.20114 7.98506 5.18538 7.98114 5.17 7.976C5.15748 7.9687 5.14546 7.96059 5.134 7.95171C5.11426 7.94052 5.09594 7.92699 5.07943 7.91143C5.07771 7.90971 5.07543 7.90914 5.074 7.90743C5.06624 7.89631 5.05927 7.88467 5.05314 7.87257C5.02552 7.84019 5.00971 7.79939 5.00829 7.75686C5.00444 7.7429 5.00167 7.72867 5 7.71429V5.42857H3.06571C3.02943 5.42828 2.99354 5.421 2.96 5.40714C2.94542 5.39999 2.93155 5.39148 2.91857 5.38171C2.90292 5.37421 2.88807 5.36512 2.87429 5.35457C2.87229 5.35457 2.87171 5.35086 2.87 5.34914C2.85463 5.33282 2.84129 5.31468 2.83029 5.29514C2.82112 5.28364 2.81291 5.2714 2.80571 5.25857C2.80047 5.24332 2.79655 5.22764 2.794 5.21171C2.78754 5.19157 2.78333 5.17078 2.78143 5.14971C2.78143 5.14743 2.78143 5.14543 2.78143 5.14286C2.78313 5.12893 2.786 5.11516 2.79 5.10171C2.79162 5.08101 2.79575 5.06057 2.80229 5.04086C2.81096 5.02136 2.82189 5.00295 2.83486 4.986C2.84077 4.97385 2.84765 4.9622 2.85543 4.95114C2.949 4.84686 3.00052 4.71154 3 4.57143C3 4.25584 2.74416 4 2.42857 4C2.11298 4 1.85714 4.25584 1.85714 4.57143C1.85701 4.71173 1.90905 4.84707 2.00314 4.95114C2.01082 4.96226 2.01769 4.97391 2.02371 4.986C2.03674 5.00291 2.04768 5.02133 2.05629 5.04086C2.06282 5.06057 2.06695 5.08101 2.06857 5.10171C2.07258 5.11516 2.07544 5.12893 2.07714 5.14286V5.14971C2.07475 5.17074 2.07006 5.19143 2.06314 5.21143Z" fill="#153F8D"/>
</g>
</g>
</svg>
