<svg width="11" height="16" viewBox="0 0 11 16" fill="none" xmlns="http://www.w3.org/2000/svg">
<g id="Page-1">
<g id="004---Creative-Problem-Solving">
<path id="Path" d="M1.28572 4.57143C1.27919 4.12449 1.53382 3.71476 1.93746 3.52273C2.34109 3.33069 2.81964 3.3916 3.1623 3.67862C3.50497 3.96564 3.64885 4.42609 3.53057 4.85714H5V3.38772C4.535 3.51551 4.03982 3.33767 3.76238 2.94323C3.48493 2.54879 3.48493 2.02264 3.76238 1.62821C4.03982 1.23377 4.535 1.05593 5 1.18372V0.0354309C4.00624 0.148488 3.07275 0.56958 2.33029 1.23972C1.30289 2.16172 0.71545 3.4767 0.714287 4.85714H1.32657C1.30091 4.76402 1.28718 4.66801 1.28572 4.57143Z" fill="#153F8D"/>
<path id="Path_2" d="M4.14286 2.28571C4.14286 2.60131 4.39869 2.85714 4.71429 2.85714C4.85458 2.85724 4.98991 2.80521 5.094 2.71114C5.10495 2.70337 5.11651 2.69649 5.12857 2.69057C5.14561 2.67751 5.16412 2.66648 5.18371 2.65771C5.20341 2.65149 5.22372 2.64737 5.24428 2.64543C5.25787 2.64163 5.27172 2.63886 5.28571 2.63714H5.29286C5.31411 2.63907 5.33508 2.64328 5.35543 2.64971C5.37104 2.65231 5.38642 2.65613 5.40143 2.66114C5.41455 2.66852 5.42706 2.67693 5.43886 2.68629C5.45806 2.6973 5.4759 2.71053 5.492 2.72571C5.49371 2.72743 5.496 2.728 5.49743 2.72971C5.50519 2.74083 5.51216 2.75248 5.51828 2.76457C5.53121 2.78155 5.54214 2.79995 5.55086 2.81943C5.55725 2.83918 5.56137 2.8596 5.56314 2.88029C5.56699 2.89424 5.56976 2.90848 5.57143 2.92286V4.85714H7.50571C7.51935 4.85875 7.53283 4.86152 7.546 4.86543C7.56698 4.86706 7.5877 4.87119 7.60771 4.87771C7.62706 4.88651 7.64536 4.89743 7.66229 4.91029C7.67442 4.91635 7.68607 4.92332 7.69714 4.93114C7.69914 4.93114 7.69971 4.93486 7.70143 4.93657C7.71681 4.95307 7.73023 4.97128 7.74143 4.99086C7.7504 5.00234 7.75852 5.01447 7.76571 5.02714C7.77095 5.0425 7.77487 5.05827 7.77743 5.07429C7.78386 5.09434 7.78807 5.11503 7.79 5.136C7.79 5.13829 7.79143 5.14029 7.79143 5.14286C7.78973 5.15679 7.78686 5.17055 7.78286 5.184C7.78123 5.20471 7.77711 5.22514 7.77057 5.24486C7.76196 5.26439 7.75103 5.28281 7.738 5.29971C7.73197 5.3118 7.7251 5.32345 7.71743 5.33457C7.62334 5.43864 7.5713 5.57398 7.57143 5.71429C7.57143 6.02988 7.82727 6.28571 8.14286 6.28571C8.45845 6.28571 8.71428 6.02988 8.71428 5.71429C8.71441 5.57398 8.66238 5.43864 8.56828 5.33457C8.56051 5.32352 8.55363 5.31186 8.54771 5.29971C8.53474 5.28277 8.52381 5.26436 8.51514 5.24486C8.5086 5.22514 8.50448 5.20471 8.50286 5.184C8.49885 5.17055 8.49598 5.15679 8.49428 5.14286C8.49428 5.14029 8.49571 5.13829 8.49571 5.136C8.49761 5.11493 8.50183 5.09414 8.50828 5.074C8.51084 5.05807 8.51476 5.0424 8.52 5.02714C8.52719 5.01431 8.53541 5.00208 8.54457 4.99057C8.55557 4.97103 8.56891 4.9529 8.58428 4.93657C8.586 4.93486 8.58657 4.93257 8.58857 4.93114C8.62988 4.89249 8.68327 4.86928 8.73971 4.86543C8.75288 4.86152 8.76636 4.85875 8.78 4.85714H10.4286C10.4285 4.66525 10.4176 4.47351 10.3957 4.28286C10.1259 2.04682 8.35745 0.287812 6.12 0.03C5.93781 0.0102522 5.75469 0.000237951 5.57143 0V1.64857C5.56969 1.66247 5.56692 1.67622 5.56314 1.68971C5.56137 1.7104 5.55725 1.73082 5.55086 1.75057C5.54214 1.77005 5.53121 1.78845 5.51828 1.80543C5.51216 1.81752 5.50519 1.82917 5.49743 1.84029C5.49743 1.842 5.49371 1.84257 5.492 1.84429C5.47572 1.85959 5.45769 1.87292 5.43829 1.884C5.42661 1.89316 5.4143 1.90147 5.40143 1.90886C5.38622 1.91387 5.37065 1.91769 5.35486 1.92029C5.33474 1.92685 5.31394 1.93107 5.29286 1.93286C5.29028 1.93286 5.28829 1.93286 5.28571 1.93286C5.27181 1.93112 5.25806 1.92835 5.24457 1.92457C5.22391 1.92266 5.2035 1.91854 5.18371 1.91229C5.16427 1.90351 5.14587 1.89259 5.12886 1.87971C5.11676 1.87359 5.10511 1.86662 5.094 1.85886C4.9897 1.76531 4.85439 1.71379 4.71429 1.71429C4.39869 1.71429 4.14286 1.97012 4.14286 2.28571Z" fill="#153F8D"/>
<path id="Path_3" d="M8.14286 12.2857H3C2.84221 12.2857 2.71429 12.4136 2.71429 12.5714C2.71429 12.7292 2.84221 12.8571 3 12.8571H8.14286C8.30065 12.8571 8.42857 12.7292 8.42857 12.5714C8.42857 12.4136 8.30065 12.2857 8.14286 12.2857Z" fill="#153F8D"/>
<path id="Path_4" d="M5.57143 16C6.40762 15.999 7.12148 15.3957 7.262 14.5714H3.88086C4.02138 15.3957 4.73524 15.999 5.57143 16Z" fill="#153F8D"/>
<path id="Path_5" d="M5.57143 5.42857V7.24943C5.99978 7.13783 6.45403 7.28408 6.7368 7.62464C7.01957 7.9652 7.07982 8.43859 6.89137 8.83913C6.70293 9.23966 6.2998 9.49503 5.85714 9.49429C5.76055 9.49297 5.66452 9.47923 5.57143 9.45343V11.7143H7.57143V11.4926C7.57083 10.3196 8.05223 9.19793 8.90286 8.39029C9.73559 7.61105 10.2646 6.56148 10.3957 5.42857H9.24486C9.37265 5.89358 9.19481 6.38875 8.80037 6.6662C8.40593 6.94364 7.87979 6.94364 7.48535 6.6662C7.09091 6.38875 6.91307 5.89358 7.04086 5.42857H5.57143Z" fill="#153F8D"/>
<path id="Path_6" d="M8.14286 14C8.30065 14 8.42857 13.8721 8.42857 13.7143C8.42857 13.5565 8.30065 13.4286 8.14286 13.4286H3C2.84221 13.4286 2.71429 13.5565 2.71429 13.7143C2.71429 13.8721 2.84221 14 3 14H8.14286Z" fill="#153F8D"/>
<path id="Path_7" d="M2.06314 5.21143C2.06058 5.22745 2.05666 5.24322 2.05143 5.25857C2.04423 5.27125 2.03612 5.28337 2.02714 5.29486C2.01594 5.31443 2.00252 5.33265 1.98714 5.34914C1.98543 5.35086 1.98486 5.35314 1.98286 5.35457C1.97188 5.3624 1.96032 5.36937 1.94829 5.37543C1.93127 5.3883 1.91287 5.39922 1.89343 5.408C1.87363 5.41423 1.85323 5.41834 1.83257 5.42029C1.81908 5.42406 1.80533 5.42683 1.79143 5.42857H0.75C0.879167 6.56187 1.40769 7.61212 2.24086 8.39114C3.09129 9.19849 3.57242 10.3199 3.57143 11.4926V11.7143H5V8.98857C5.00165 8.97524 5.00432 8.96206 5.008 8.94914C5.00973 8.92777 5.01395 8.90668 5.02057 8.88629C5.02907 8.86741 5.03971 8.84958 5.05229 8.83314C5.05841 8.82033 5.06568 8.80809 5.074 8.79657C5.07571 8.79486 5.078 8.79429 5.07971 8.79229C5.09516 8.77809 5.11212 8.76563 5.13029 8.75514C5.1428 8.7448 5.15629 8.73571 5.17057 8.728C5.18439 8.72344 5.19852 8.71991 5.21286 8.71743C5.23434 8.7104 5.2566 8.70599 5.27914 8.70429C5.2813 8.70367 5.2835 8.7032 5.28571 8.70286C5.29923 8.7045 5.3126 8.70718 5.32571 8.71086C5.34687 8.71276 5.36776 8.71697 5.388 8.72343C5.40687 8.7321 5.42478 8.74273 5.44143 8.75514C5.45406 8.76145 5.46619 8.7687 5.47771 8.77686C5.5816 8.87107 5.7169 8.92313 5.85714 8.92286C6.17273 8.92286 6.42857 8.66702 6.42857 8.35143C6.42857 8.03584 6.17273 7.78 5.85714 7.78C5.71685 7.7799 5.58152 7.83193 5.47743 7.926C5.46631 7.93376 5.45467 7.94073 5.44257 7.94686C5.42572 7.95982 5.40741 7.97076 5.388 7.97943C5.3539 7.98627 5.31981 7.99313 5.28571 8C5.28314 8 5.28114 8 5.27886 8C5.2579 7.99817 5.2372 7.99405 5.21714 7.98771C5.20114 7.98506 5.18538 7.98114 5.17 7.976C5.15748 7.9687 5.14546 7.96059 5.134 7.95171C5.11426 7.94052 5.09594 7.92699 5.07943 7.91143C5.07771 7.90971 5.07543 7.90914 5.074 7.90743C5.06624 7.89631 5.05927 7.88467 5.05314 7.87257C5.02552 7.84019 5.00971 7.79939 5.00829 7.75686C5.00444 7.7429 5.00167 7.72867 5 7.71429V5.42857H3.06571C3.02943 5.42828 2.99354 5.421 2.96 5.40714C2.94542 5.39999 2.93155 5.39148 2.91857 5.38171C2.90292 5.37421 2.88807 5.36512 2.87429 5.35457C2.87229 5.35457 2.87171 5.35086 2.87 5.34914C2.85463 5.33282 2.84129 5.31468 2.83029 5.29514C2.82112 5.28364 2.81291 5.2714 2.80571 5.25857C2.80047 5.24332 2.79655 5.22764 2.794 5.21171C2.78754 5.19157 2.78333 5.17078 2.78143 5.14971C2.78143 5.14743 2.78143 5.14543 2.78143 5.14286C2.78313 5.12893 2.786 5.11516 2.79 5.10171C2.79162 5.08101 2.79575 5.06057 2.80229 5.04086C2.81096 5.02136 2.82189 5.00295 2.83486 4.986C2.84077 4.97385 2.84765 4.9622 2.85543 4.95114C2.949 4.84686 3.00052 4.71154 3 4.57143C3 4.25584 2.74416 4 2.42857 4C2.11298 4 1.85714 4.25584 1.85714 4.57143C1.85701 4.71173 1.90905 4.84707 2.00314 4.95114C2.01082 4.96226 2.01769 4.97391 2.02371 4.986C2.03674 5.00291 2.04768 5.02133 2.05629 5.04086C2.06282 5.06057 2.06695 5.08101 2.06857 5.10171C2.07258 5.11516 2.07544 5.12893 2.07714 5.14286V5.14971C2.07475 5.17074 2.07006 5.19143 2.06314 5.21143Z" fill="#153F8D"/>
</g>
</g>
</svg>
