<svg width="16" height="16" viewBox="0 0 16 16" fill="none" xmlns="http://www.w3.org/2000/svg">
<g id="group 1" clip-path="url(#clip0_4865_5584)">
<path id="Vector" d="M6.00623 0.28125H0.754272L3.38025 2.46936L6.00623 0.28125Z" fill="#153F8D"/>
<path id="Vector_2" d="M5.7948 5.11023H6.76062V0.909668L3.38025 3.72693L0 0.909668V5.11023H3.26636L5.7948 6.37439V5.11023Z" fill="#153F8D"/>
<path id="Vector_3" d="M9.23938 9.93921C9.23938 8.87415 8.37292 8.00757 7.30786 8.00757C6.2428 8.00757 5.37622 8.87415 5.37622 9.93921C5.37622 11.0043 6.2428 11.8707 7.30786 11.8707C8.38953 11.8707 9.23938 10.989 9.23938 9.93921Z" fill="#153F8D"/>
<path id="Vector_4" d="M15.0342 9.93921C15.0342 8.87415 14.1677 8.00757 13.1027 8.00757C12.0376 8.00757 11.171 8.87415 11.171 9.93921C11.171 10.991 12.0229 11.8707 13.1027 11.8707C14.1677 11.8707 15.0342 11.0043 15.0342 9.93921Z" fill="#153F8D"/>
<path id="Vector_5" d="M13.1027 11.8707C11.505 11.8707 10.2052 13.1705 10.2052 14.7682C10.2052 13.1545 8.88306 11.8707 7.30786 11.8707C5.71021 11.8707 4.41052 13.1705 4.41052 14.7682V15.734H16V14.7682C16 13.1545 14.6779 11.8707 13.1027 11.8707Z" fill="#153F8D"/>
<path id="Vector_6" d="M10.2052 6.55896C11.2703 6.55896 12.1368 5.69238 12.1368 4.62732C12.1368 3.56226 11.2703 2.69568 10.2052 2.69568C9.14014 2.69568 8.27368 3.56226 8.27368 4.62732C8.27368 5.67908 9.12549 6.55896 10.2052 6.55896Z" fill="#153F8D"/>
<path id="Vector_7" d="M10.2052 9.93921C10.2052 8.7085 10.9766 7.65442 12.0612 7.23535C11.5548 6.81226 10.9052 6.55896 10.2052 6.55896C9.49854 6.55896 8.85059 6.81287 8.34741 7.23462C9.43286 7.6532 10.2052 8.70752 10.2052 9.93921Z" fill="#153F8D"/>
</g>
<defs>
<clipPath id="clip0_4865_5584">
<rect width="16" height="16" fill="white"/>
</clipPath>
</defs>
</svg>
