<svg width="16" height="16" viewBox="0 0 16 16" fill="none" xmlns="http://www.w3.org/2000/svg">
<g id="Group">
<g id="Group_2">
<g id="Group_3">
<path id="Vector" d="M9.16005 4.18336C9.16005 3.5424 8.63964 3.021 7.99995 3.021C7.36025 3.021 6.83984 3.54243 6.83984 4.18336C6.83984 4.27283 6.84972 4.36045 6.86942 4.44571H9.13051C9.15017 4.36045 9.16005 4.27279 9.16005 4.18336Z" fill="#153F8D"/>
<path id="Vector_2" d="M11.5167 3.61597C11.3567 3.57744 11.2297 3.45593 11.1843 3.29778C11.1158 3.05962 11.0188 2.82831 10.8958 2.61029C10.8141 2.46533 10.8175 2.28745 10.9049 2.14581L11.2972 1.50937L10.7247 0.945607L10.0696 1.33723C9.93019 1.42062 9.75689 1.42366 9.61453 1.3453C9.39265 1.22311 9.15696 1.12643 8.91402 1.05791C8.75597 1.01333 8.63395 0.887453 8.5944 0.728068L8.41361 0H7.5957L7.4157 0.725026C7.376 0.884855 7.25341 1.01101 7.09474 1.05525C6.8517 1.12297 6.6157 1.21897 6.39337 1.34058C6.25125 1.41832 6.07853 1.41501 5.93946 1.33186L5.28168 0.938633L4.70917 1.50239L5.09994 2.13617C5.18753 2.27822 5.19074 2.45672 5.10831 2.60185C4.98472 2.81945 4.88698 3.05046 4.81778 3.28848C4.77197 3.44598 4.6453 3.56691 4.48582 3.6053L3.74414 3.78386V4.44574H5.94209C5.93125 4.35935 5.92527 4.2719 5.92527 4.18338C5.92527 3.03832 6.85583 2.10674 7.99966 2.10674C9.14349 2.10674 10.0741 3.03832 10.0741 4.18338C10.0741 4.2719 10.0681 4.35932 10.0572 4.44574H12.2552V3.79374L11.5167 3.61597Z" fill="#153F8D"/>
</g>
<path id="Vector_3" d="M0 13.895V15.6848C0 15.8586 0.141402 16 0.315214 16H15.6848C15.8586 16 16 15.8586 16 15.6848V13.895H11.0102L10.6625 14.7578C10.5928 14.9307 10.425 15.044 10.2385 15.044H5.75327C5.56677 15.044 5.39897 14.9307 5.32927 14.7578L4.98154 13.895H0Z" fill="#153F8D"/>
</g>
<path id="Vector_4" d="M14.4745 5.35999H1.52643C1.3584 5.35999 1.22168 5.4967 1.22168 5.66474V12.9807H5.29067C5.47717 12.9807 5.64496 13.094 5.71467 13.267L6.0624 14.1297H9.9304L10.2781 13.267C10.3478 13.094 10.5156 12.9807 10.7021 12.9807H14.7793V5.66477C14.7793 5.4967 14.6425 5.35999 14.4745 5.35999ZM6.39101 8.63838L4.7293 9.4713L6.39101 10.3042V11.1809L3.61224 9.74973V9.19281L6.39101 7.76159V8.63838ZM7.71553 11.2285H6.87611L8.44472 7.15257H9.28971L7.71553 11.2285ZM12.3887 9.75503L9.60988 11.1802V10.3037L11.2833 9.47127L9.60988 8.63879V7.76238L12.3887 9.18758V9.75503Z" fill="#153F8D"/>
</g>
</svg>
