<svg width="16" height="12" viewBox="0 0 16 12" fill="none" xmlns="http://www.w3.org/2000/svg">
<g id="Group">
<g id="Group_2">
<path id="Vector" d="M12.5018 11.821H9.91582H9.21945H9.06906V8.35227H10.2035C10.4912 8.35227 10.6612 8.02534 10.4912 7.78995L8.28443 4.73641C8.14385 4.54025 7.85288 4.54025 7.7123 4.73641L5.50552 7.78995C5.33551 8.02534 5.50225 8.35227 5.79322 8.35227H6.92767V11.821H6.77728H6.08092H3.08296C1.36657 11.7262 0 10.121 0 8.38169C0 7.18186 0.650593 6.13568 1.61504 5.57009C1.52677 5.33143 1.481 5.07642 1.481 4.80834C1.481 3.58235 2.4716 2.59175 3.69759 2.59175C3.9624 2.59175 4.21741 2.63752 4.45607 2.72579C5.16551 1.2219 6.69555 0.178995 8.47405 0.178995C10.7756 0.182264 12.6718 1.94442 12.8876 4.19044C14.6563 4.49448 16 6.13241 16 7.98611C16 9.96731 14.4569 11.6837 12.5018 11.821Z" fill="#153F8D"/>
</g>
</g>
</svg>
