<svg width="24" height="24" viewBox="0 0 24 24" fill="none" xmlns="http://www.w3.org/2000/svg">
<g id="instagram">
<path id="Vector" d="M16.0165 1.99997H7.94651C6.36967 2.00182 4.85795 2.62911 3.74304 3.74421C2.62813 4.8593 2.0011 6.37112 1.99951 7.94797L1.99951 16.018C2.00136 17.5948 2.62865 19.1065 3.74375 20.2214C4.85884 21.3363 6.37066 21.9634 7.94751 21.965H16.0175C17.5944 21.9631 19.1061 21.3358 20.221 20.2207C21.3359 19.1056 21.9629 17.5938 21.9645 16.017V7.94697C21.9627 6.37012 21.3354 4.85841 20.2203 3.7435C19.1052 2.62859 17.5934 2.00156 16.0165 1.99997V1.99997ZM19.9565 16.017C19.9565 16.5344 19.8546 17.0467 19.6566 17.5247C19.4586 18.0028 19.1684 18.4371 18.8025 18.803C18.4367 19.1688 18.0023 19.4591 17.5243 19.6571C17.0463 19.8551 16.5339 19.957 16.0165 19.957H7.94651C6.90173 19.9567 5.89983 19.5415 5.16116 18.8026C4.42248 18.0638 4.00751 17.0617 4.00751 16.017V7.94697C4.00778 6.90219 4.423 5.90029 5.16186 5.16162C5.90073 4.42294 6.90273 4.00797 7.94751 4.00797H16.0175C17.0623 4.00823 18.0642 4.42346 18.8029 5.16232C19.5415 5.90119 19.9565 6.90319 19.9565 7.94797V16.018V16.017Z" fill="#153F8D"/>
<path id="Vector_2" d="M11.9823 6.81903C10.6137 6.82115 9.30184 7.36582 8.33421 8.33364C7.36658 9.30146 6.82216 10.6135 6.82031 11.982C6.8219 13.3509 7.36634 14.6634 8.33421 15.6314C9.30209 16.5995 10.6144 17.1442 11.9833 17.146C13.3524 17.1444 14.665 16.5999 15.6331 15.6318C16.6012 14.6637 17.1457 13.3511 17.1473 11.982C17.1452 10.6131 16.6003 9.30091 15.632 8.33322C14.6637 7.36553 13.3512 6.82135 11.9823 6.82003V6.81903ZM11.9823 15.138C11.1456 15.138 10.3431 14.8056 9.75139 14.214C9.15971 13.6223 8.82731 12.8198 8.82731 11.983C8.82731 11.1463 9.15971 10.3438 9.75139 9.75211C10.3431 9.16043 11.1456 8.82803 11.9823 8.82803C12.8191 8.82803 13.6216 9.16043 14.2132 9.75211C14.8049 10.3438 15.1373 11.1463 15.1373 11.983C15.1373 12.8198 14.8049 13.6223 14.2132 14.214C13.6216 14.8056 12.8191 15.138 11.9823 15.138Z" fill="#153F8D"/>
<path id="Vector_3" d="M17.1555 8.09497C17.8386 8.09497 18.3925 7.54115 18.3925 6.85797C18.3925 6.1748 17.8386 5.62097 17.1555 5.62097C16.4723 5.62097 15.9185 6.1748 15.9185 6.85797C15.9185 7.54115 16.4723 8.09497 17.1555 8.09497Z" fill="#153F8D"/>
</g>
</svg>
