<svg width="24" height="24" viewBox="0 0 24 24" fill="none" xmlns="http://www.w3.org/2000/svg">
<g id="linkedin-square">
<path id="Vector" d="M17.0005 13.13V16.827H14.8575V13.377C14.8575 12.511 14.5475 11.92 13.7715 11.92C13.1795 11.92 12.8265 12.318 12.6715 12.704C12.6155 12.842 12.6005 13.034 12.6005 13.226V16.827H10.4565C10.4565 16.827 10.4855 10.985 10.4565 10.38H12.6005V11.293L12.5865 11.314H12.6005V11.294C12.8855 10.854 13.3935 10.228 14.5325 10.228C15.9425 10.228 17.0005 11.15 17.0005 13.13ZM8.21349 7.27103C7.48049 7.27103 7.00049 7.75303 7.00049 8.38503C7.00049 9.00503 7.46649 9.50003 8.18549 9.50003H8.19949C8.94749 9.50003 9.41249 9.00403 9.41249 8.38503C9.39849 7.75303 8.94749 7.27103 8.21349 7.27103ZM7.12749 16.827H9.27149V10.38H7.12749V16.827Z" fill="#153F8D"/>
<path id="Vector_2" d="M5.99951 3.99997C5.46908 3.99997 4.96037 4.21068 4.5853 4.58576C4.21023 4.96083 3.99951 5.46954 3.99951 5.99997V18C3.99951 18.5304 4.21023 19.0391 4.5853 19.4142C4.96037 19.7893 5.46908 20 5.99951 20H17.9995C18.5299 20 19.0387 19.7893 19.4137 19.4142C19.7888 19.0391 19.9995 18.5304 19.9995 18V5.99997C19.9995 5.46954 19.7888 4.96083 19.4137 4.58576C19.0387 4.21068 18.5299 3.99997 17.9995 3.99997H5.99951ZM5.99951 1.99997H17.9995C19.0604 1.99997 20.0778 2.4214 20.8279 3.17154C21.5781 3.92169 21.9995 4.9391 21.9995 5.99997V18C21.9995 19.0608 21.5781 20.0783 20.8279 20.8284C20.0778 21.5785 19.0604 22 17.9995 22H5.99951C4.93865 22 3.92123 21.5785 3.17108 20.8284C2.42094 20.0783 1.99951 19.0608 1.99951 18V5.99997C1.99951 4.9391 2.42094 3.92169 3.17108 3.17154C3.92123 2.4214 4.93865 1.99997 5.99951 1.99997V1.99997Z" fill="#153F8D"/>
</g>
</svg>
