<svg width="78" height="64" viewBox="0 0 78 64" fill="none" xmlns="http://www.w3.org/2000/svg">
<path d="M77.1357 0V14.7257H72.6047C68.9547 14.7257 66.0599 15.292 63.9203 16.4248C61.7807 17.5575 60.2074 19.5084 59.2005 22.2773C58.1937 24.9204 57.6902 28.5074 57.6902 33.0383V47.0088L52.2153 36.4366C53.0963 35.8073 54.3549 35.3038 55.9911 34.9263C57.6273 34.4228 59.3264 34.1711 61.0885 34.1711C65.2418 34.1711 68.703 35.4926 71.4719 38.1357C74.2409 40.6529 75.6253 44.177 75.6253 48.708C75.6253 52.9872 74.3038 56.6372 71.6607 59.6578C69.0177 62.5526 65.2418 64 60.3333 64C57.1868 64 54.2291 63.3078 51.4601 61.9233C48.8171 60.413 46.6774 57.8958 45.0413 54.3717C43.4051 50.7217 42.587 45.7502 42.587 39.4572V36.2478C42.587 27.3117 43.7826 20.2006 46.174 14.9145C48.6912 9.62832 52.2782 5.85251 56.9351 3.58702C61.5919 1.19567 67.2556 0 73.9262 0H77.1357ZM35.4129 0V14.7257H30.882C27.232 14.7257 24.3372 15.292 22.1976 16.4248C20.058 17.5575 18.4847 19.5084 17.4778 22.2773C16.4709 24.9204 15.9675 28.5074 15.9675 33.0383V47.0088L10.4926 36.4366C11.3736 35.8073 12.6322 35.3038 14.2684 34.9263C15.9046 34.4228 17.6037 34.1711 19.3657 34.1711C23.5191 34.1711 26.9803 35.4926 29.7492 38.1357C32.5181 40.6529 33.9026 44.177 33.9026 48.708C33.9026 52.9872 32.5811 56.6372 29.938 59.6578C27.2949 62.5526 23.5191 64 18.6106 64C15.4641 64 12.5063 63.3078 9.73742 61.9233C7.09435 60.413 4.95472 57.8958 3.31854 54.3717C1.68235 50.7217 0.864258 45.7502 0.864258 39.4572V36.2478C0.864258 27.3117 2.05993 20.2006 4.45128 14.9145C6.96849 9.62832 10.5555 5.85251 15.2123 3.58702C19.8692 1.19567 25.5329 0 32.2035 0H35.4129Z" fill="#FCAF17"/>
</svg>
