<svg width="20" height="16" viewBox="0 0 20 16" fill="none" xmlns="http://www.w3.org/2000/svg">
<g id="Group">
<path id="Vector" d="M17.6055 2.99503C17.5295 2.69703 17.3135 2.47203 17.0665 2.40303C16.6295 2.28003 14.4995 2.00003 9.99951 2.00003C5.49951 2.00003 3.37151 2.28003 2.93051 2.40303C2.68651 2.47103 2.47051 2.69603 2.39351 2.99503C2.28451 3.41903 1.99951 5.19603 1.99951 8.00003C1.99951 10.804 2.28451 12.58 2.39351 13.006C2.46951 13.303 2.68551 13.528 2.93151 13.596C3.37151 13.72 5.49951 14 9.99951 14C14.4995 14 16.6285 13.72 17.0685 13.597C17.3125 13.529 17.5285 13.304 17.6055 13.005C17.7145 12.581 17.9995 10.8 17.9995 8.00003C17.9995 5.20003 17.7145 3.42003 17.6055 2.99503ZM19.5425 2.49803C19.9995 4.28003 19.9995 8.00003 19.9995 8.00003C19.9995 8.00003 19.9995 11.72 19.5425 13.502C19.2885 14.487 18.5455 15.262 17.6045 15.524C15.8955 16 9.99951 16 9.99951 16C9.99951 16 4.10651 16 2.39451 15.524C1.44951 15.258 0.707512 14.484 0.456512 13.502C-0.000488251 11.72 -0.000488281 8.00003 -0.000488281 8.00003C-0.000488281 8.00003 -0.000488251 4.28003 0.456512 2.49803C0.710512 1.51303 1.45351 0.73803 2.39451 0.47603C4.10651 3.03388e-05 9.99951 3.05176e-05 9.99951 3.05176e-05C9.99951 3.05176e-05 15.8955 3.03388e-05 17.6045 0.47603C18.5495 0.74203 19.2915 1.51603 19.5425 2.49803ZM7.99951 11.5V4.50003L13.9995 8.00003L7.99951 11.5Z" fill="#153F8D"/>
</g>
</svg>
