<svg width="24" height="24" viewBox="0 0 24 24" fill="none" xmlns="http://www.w3.org/2000/svg">
<path d="M17 13.1295V16.8265H14.857V13.3765C14.857 12.5105 14.547 11.9195 13.771 11.9195C13.179 11.9195 12.826 12.3175 12.671 12.7035C12.615 12.8415 12.6 13.0335 12.6 13.2255V16.8265H10.456C10.456 16.8265 10.485 10.9845 10.456 10.3795H12.6V11.2925L12.586 11.3135H12.6V11.2935C12.885 10.8535 13.393 10.2275 14.532 10.2275C15.942 10.2275 17 11.1495 17 13.1295ZM8.213 7.27051C7.48 7.27051 7 7.75251 7 8.38451C7 9.00451 7.466 9.49951 8.185 9.49951H8.199C8.947 9.49951 9.412 9.00351 9.412 8.38451C9.398 7.75251 8.947 7.27051 8.213 7.27051ZM7.127 16.8265H9.271V10.3795H7.127V16.8265Z" fill="#153F8D"/>
<path d="M6 4C5.46957 4 4.96086 4.21071 4.58579 4.58579C4.21071 4.96086 4 5.46957 4 6V18C4 18.5304 4.21071 19.0391 4.58579 19.4142C4.96086 19.7893 5.46957 20 6 20H18C18.5304 20 19.0391 19.7893 19.4142 19.4142C19.7893 19.0391 20 18.5304 20 18V6C20 5.46957 19.7893 4.96086 19.4142 4.58579C19.0391 4.21071 18.5304 4 18 4H6ZM6 2H18C19.0609 2 20.0783 2.42143 20.8284 3.17157C21.5786 3.92172 22 4.93913 22 6V18C22 19.0609 21.5786 20.0783 20.8284 20.8284C20.0783 21.5786 19.0609 22 18 22H6C4.93913 22 3.92172 21.5786 3.17157 20.8284C2.42143 20.0783 2 19.0609 2 18V6C2 4.93913 2.42143 3.92172 3.17157 3.17157C3.92172 2.42143 4.93913 2 6 2V2Z" fill="#153F8D"/>
</svg>
