<svg width="24" height="24" viewBox="0 0 24 24" fill="none" xmlns="http://www.w3.org/2000/svg">
<g id="Group">
<path id="Vector" d="M7.25301 18.494L7.97701 18.917C9.19795 19.6291 10.5866 20.0029 12 20C13.5823 20 15.129 19.5308 16.4446 18.6518C17.7602 17.7727 18.7855 16.5233 19.3911 15.0615C19.9966 13.5997 20.155 11.9911 19.8463 10.4393C19.5376 8.88743 18.7757 7.46197 17.6569 6.34315C16.538 5.22433 15.1126 4.4624 13.5607 4.15372C12.0089 3.84504 10.4004 4.00346 8.93855 4.60896C7.47674 5.21447 6.22731 6.23984 5.34826 7.55544C4.46921 8.87103 4.00001 10.4177 4.00001 12C4.00001 13.436 4.37701 14.813 5.08401 16.024L5.50601 16.748L4.85301 19.149L7.25301 18.494ZM2.00401 22L3.35601 17.032C2.46515 15.5049 1.99711 13.768 2.00001 12C2.00001 6.477 6.47701 2 12 2C17.523 2 22 6.477 22 12C22 17.523 17.523 22 12 22C10.2328 22.0029 8.49667 21.5352 6.97001 20.645L2.00401 22Z" fill="#6E7191"/>
<path id="Vector_2" d="M8.79445 7.3039C8.66045 7.2979 8.52545 7.2979 8.39145 7.3079L8.39045 7.3069C8.26132 7.31492 8.13513 7.34893 8.01945 7.4069C7.93245 7.4509 7.85245 7.5149 7.72545 7.6349C7.60645 7.7479 7.53745 7.8459 7.46445 7.9399C7.0948 8.42157 6.89633 9.01275 6.90045 9.6199C6.90982 10.1093 7.02262 10.5912 7.23145 11.0339C7.63945 11.9359 8.31145 12.8909 9.20145 13.7759C9.41545 13.9889 9.62445 14.2029 9.85045 14.4019C10.9538 15.3734 12.2687 16.0739 13.6905 16.4479C13.6905 16.4479 14.2505 16.5349 14.2585 16.5349C14.4445 16.5449 14.6295 16.5309 14.8145 16.5209C15.1056 16.5062 15.39 16.4277 15.6475 16.2909C15.7783 16.2232 15.9061 16.1498 16.0305 16.0709C16.0727 16.0418 16.1144 16.0118 16.1555 15.9809C16.2741 15.8953 16.3845 15.7988 16.4855 15.6929C16.5711 15.6041 16.642 15.5021 16.6955 15.3909C16.7735 15.2279 16.8515 14.9169 16.8835 14.6579C16.9065 14.4599 16.9005 14.3519 16.8965 14.2849C16.8935 14.1779 16.8045 14.0669 16.7065 14.0199L16.1245 13.7589C16.1245 13.7589 15.2555 13.3799 14.7245 13.1369C14.6685 13.1119 14.6075 13.1009 14.5475 13.0969C14.479 13.0899 14.4099 13.0976 14.3447 13.1195C14.2795 13.1414 14.2198 13.177 14.1695 13.2239V13.2219C14.1635 13.2219 14.0975 13.2789 13.3735 14.1559C13.332 14.2115 13.275 14.2535 13.2097 14.2766C13.1444 14.2998 13.0736 14.303 13.0065 14.2859C12.9415 14.2689 12.8775 14.2459 12.8155 14.2199C12.6915 14.1669 12.6485 14.1469 12.5635 14.1099L12.5585 14.1079C11.9865 13.8579 11.4565 13.5209 10.9885 13.1079C10.8625 12.9969 10.7455 12.8779 10.6255 12.7619C10.2055 12.3539 9.86145 11.9209 9.60545 11.4939L9.54645 11.3989C9.50445 11.3309 9.45845 11.2499 9.44445 11.1939C9.40645 11.0469 9.50545 10.9289 9.50545 10.9289C9.50545 10.9289 9.74845 10.6629 9.86145 10.5179C9.95551 10.3985 10.0433 10.2744 10.1245 10.1459C10.2425 9.9559 10.2795 9.7609 10.2175 9.6089C9.93745 8.9259 9.64745 8.2449 9.34945 7.5689C9.29045 7.4349 9.11545 7.3379 8.95645 7.3199L8.95644 7.3199C8.90244 7.3139 8.84845 7.3079 8.79445 7.3039Z" fill="#6E7191"/>
</g>
</svg>
